<?xml version="1.0"?>
<svg xmlns="http://www.w3.org/2000/svg" viewBox="0 0 64 64" width="512" height="512"><g id="Money_exchange" data-name="Money exchange"><path d="M36,16H32a1,1,0,0,1,0-2h4a1,1,0,0,1,0,2Z"/><path d="M47,28H3a1,1,0,0,1-1-1V3A1,1,0,0,1,3,2H47a1,1,0,0,1,1,1V27A1,1,0,0,1,47,28ZM4,26H46V4H4Z"/><path d="M40,25H10a1,1,0,0,1-1-1,3,3,0,0,0-3-3,1,1,0,0,1-1-1V10A1,1,0,0,1,6,9,3,3,0,0,0,9,6a1,1,0,0,1,1-1H40a1,1,0,0,1,1,1,3,3,0,0,0,3,3,1,1,0,0,1,1,1V20a1,1,0,0,1-1,1,3,3,0,0,0-3,3A1,1,0,0,1,40,25ZM10.9,23H39.1A5.013,5.013,0,0,1,43,19.1V10.9A5.013,5.013,0,0,1,39.1,7H10.9A5.013,5.013,0,0,1,7,10.9v8.2A5.013,5.013,0,0,1,10.9,23Z"/><path d="M61.707,27.293a1,1,0,0,0-1.414,0L59,28.586V12a5.006,5.006,0,0,0-5-5H51a1,1,0,0,0,0,2h3a3,3,0,0,1,3,3V28.586l-1.293-1.293a1,1,0,0,0-1.414,1.414l3,3a1,1,0,0,0,1.414,0l3-3A1,1,0,0,0,61.707,27.293Z"/><path d="M18,16H14a1,1,0,0,1,0-2h4a1,1,0,0,1,0,2Z"/><path d="M57,34H23a5.006,5.006,0,0,0-5,5V57a5.006,5.006,0,0,0,5,5H57a5.006,5.006,0,0,0,5-5V39A5.006,5.006,0,0,0,57,34ZM23,36H57a3,3,0,0,1,3,3v1H20V39A3,3,0,0,1,23,36Zm37,8H20V42H60ZM57,60H23a3,3,0,0,1-3-3V46H60V57A3,3,0,0,1,57,60Z"/><path d="M15,53H10a3,3,0,0,1-3-3V33.414l1.293,1.293a1,1,0,0,0,1.414-1.414l-3-3a1,1,0,0,0-1.414,0l-3,3a1,1,0,0,0,1.414,1.414L5,33.414V50a5.006,5.006,0,0,0,5,5h5a1,1,0,0,0,0-2Z"/><path d="M54,50a3.966,3.966,0,0,0-2.49.894,4,4,0,1,0,0,6.212A3.992,3.992,0,1,0,54,50Zm-7,4a2,2,0,0,1,2-2,1.968,1.968,0,0,1,1.3.486,3.946,3.946,0,0,0,0,3.028A1.968,1.968,0,0,1,49,56,2,2,0,0,1,47,54Zm7,2a2,2,0,1,1,2-2A2,2,0,0,1,54,56Z"/><path d="M32,50H25a2,2,0,0,0-2,2v4a2,2,0,0,0,2,2h7a2,2,0,0,0,2-2V52A2,2,0,0,0,32,50Zm0,3H30V52h2Zm-7-1h3v4H25Zm5,4V55h2v1Z"/><path d="M25,14a1,1,0,1,1,1-1,1,1,0,0,0,2,0,3,3,0,0,0-2-2.816V9a1,1,0,0,0-2,0v1.184A2.993,2.993,0,0,0,25,16a1,1,0,1,1-1,1,1,1,0,0,0-2,0,3,3,0,0,0,2.035,2.827A.9.9,0,0,0,24,20v1a1,1,0,0,0,2,0V20a.9.9,0,0,0-.035-.173A2.992,2.992,0,0,0,25,14Z"/></g></svg>
